<?xml version="1.0" encoding="UTF-8" standalone="no"?>
<!-- Created with Inkscape (http://www.inkscape.org/) -->

<svg
   xmlns:dc="http://purl.org/dc/elements/1.1/"
   xmlns:cc="http://creativecommons.org/ns#"
   xmlns:rdf="http://www.w3.org/1999/02/22-rdf-syntax-ns#"
   xmlns:svg="http://www.w3.org/2000/svg"
   xmlns="http://www.w3.org/2000/svg"
   xmlns:sodipodi="http://sodipodi.sourceforge.net/DTD/sodipodi-0.dtd"
   xmlns:inkscape="http://www.inkscape.org/namespaces/inkscape"
   width="256"
   height="256"
   id="svg2"
   version="1.1"
   inkscape:version="0.48.1 r9760"
   inkscape:export-filename="/home/philipp/coding/dcsec/mosp/trunk/player/image_not_found.png"
   inkscape:export-xdpi="89.988571"
   inkscape:export-ydpi="89.988571"
   sodipodi:docname="New document 1">
  <defs
     id="defs4" />
  <sodipodi:namedview
     id="base"
     pagecolor="#cccccc"
     bordercolor="#666666"
     borderopacity="1.0"
     inkscape:pageopacity="1"
     inkscape:pageshadow="2"
     inkscape:zoom="0.98994949"
     inkscape:cx="152.70898"
     inkscape:cy="119.19905"
     inkscape:document-units="px"
     inkscape:current-layer="layer1"
     showgrid="false"
     inkscape:window-width="1024"
     inkscape:window-height="527"
     inkscape:window-x="0"
     inkscape:window-y="24"
     inkscape:window-maximized="1" />
  <metadata
     id="metadata7">
    <rdf:RDF>
      <cc:Work
         rdf:about="">
        <dc:format>image/svg+xml</dc:format>
        <dc:type
           rdf:resource="http://purl.org/dc/dcmitype/StillImage" />
        <dc:title></dc:title>
      </cc:Work>
    </rdf:RDF>
  </metadata>
  <g
     inkscape:label="Layer 1"
     inkscape:groupmode="layer"
     id="layer1"
     transform="translate(0,-796.36218)">
    <path
       style="font-size:49.95311356px;font-style:normal;font-variant:normal;font-weight:normal;font-stretch:normal;line-height:125%;letter-spacing:0px;word-spacing:0px;fill:#999999;fill-opacity:1;stroke:#999999;font-family:Bitstream Vera Sans Mono;-inkscape-font-specification:Bitstream Vera Sans Mono"
       d="m 56.78125,843.36217 0,4.15625 7.65625,0 0,28.125 -7.65625,0 0,4.15625 20.25,0 0,-4.15625 -7.65625,0 0,-28.125 7.65625,0 0,-4.15625 -20.25,0 z m 36.65625,8.4375 c -1.02444,2e-5 -1.93697,0.26093 -2.75,0.78125 -0.796786,0.50411 -1.463402,1.24313 -2,2.21875 l 0,-2.34375 -4.09375,0 0,27.34375 4.09375,0 0,-15.65625 c -7e-6,-3.7237 0.200941,-6.07057 0.65625,-7.0625 0.471555,-1.00815 1.31295,-1.49998 2.5,-1.5 1.20329,2e-5 2.04469,0.43317 2.5,1.34375 0.47155,0.91062 0.68749,3.31618 0.6875,7.21875 l 0,15.65625 4.09375,0 0,-15.65625 c -2e-5,-3.7237 0.24717,-6.07057 0.71875,-7.0625 0.4878,-1.00815 1.38662,-1.49998 2.6875,-1.5 1.13823,2e-5 1.92095,0.46315 2.34375,1.40625 0.43902,0.92688 0.65623,3.30246 0.65625,7.15625 l 0,15.65625 4.09375,0 0,-15.84375 c -3e-5,-4.69935 -0.46442,-7.90261 -1.375,-9.59375 -0.89437,-1.70736 -2.42982,-2.56248 -4.625,-2.5625 -1.20332,2e-5 -2.23195,0.3059 -3.09375,0.875 -0.84558,0.55289 -1.5409,1.39175 -2.09375,2.5625 -0.45532,-1.15449 -1.10822,-1.99335 -1.9375,-2.5625 -0.81305,-0.5691 -1.82669,-0.87498 -3.0625,-0.875 z m 33,0 c -1.43096,2e-5 -2.909,0.17481 -4.4375,0.5 -1.51226,0.30898 -3.09141,0.7721 -4.75,1.40625 l 0,4.5 c 1.47972,-0.84554 3.00146,-1.49844 4.5625,-1.9375 1.56102,-0.43902 3.09647,-0.65623 4.625,-0.65625 2.39032,2e-5 4.12926,0.50811 5.21875,1.5 1.08945,0.97566 1.63997,2.53982 1.65625,4.71875 l 0,0.71875 -6.03125,0 c -3.95138,10e-6 -6.95115,0.76647 -9,2.34375 -2.0326,1.57731 -3.03125,3.89674 -3.03125,6.9375 0,2.63425 0.81015,4.73521 2.46875,6.3125 1.65859,1.56103 3.87565,2.34375 6.65625,2.34375 2.08136,0 3.86527,-0.36074 5.3125,-1.125 1.46345,-0.78052 2.66559,-1.99892 3.625,-3.625 l 0,4.0625 4.5,0 0,-15.59375 c -3e-5,-2.39032 -0.11485,-4.18795 -0.375,-5.375 -0.2602,-1.20328 -0.69462,-2.21819 -1.3125,-3.03125 -0.99193,-1.33336 -2.29646,-2.33329 -3.90625,-3 -1.59358,-0.66667 -3.52102,-0.99998 -5.78125,-1 z m 29.09375,0 c -3.18712,2e-5 -5.7225,1.29083 -7.625,3.84375 -1.90252,2.55296 -2.875,5.95717 -2.875,10.25 0,4.27659 0.97248,7.69706 2.875,10.25 1.9025,2.55294 4.43788,3.84375 7.625,3.84375 1.77241,0 3.26416,-0.377 4.5,-1.125 1.2358,-0.74799 2.22201,-1.87773 2.9375,-3.40625 l 0,3.03125 0,0.1875 c -2e-5,2.8619 -0.55054,4.96412 -1.65625,6.28125 -1.10575,1.31712 -2.85841,1.96874 -5.28125,1.96875 -1.08949,-10e-6 -2.2929,-0.17352 -3.59375,-0.53125 -1.30087,-0.35774 -2.7502,-0.90826 -4.34375,-1.65625 l 0,4.4375 c 1.34964,0.43903 2.71285,0.77234 4.0625,1 1.34963,0.22764 2.63917,0.34374 3.875,0.34375 3.75622,-10e-6 6.5962,-1.04236 8.53125,-3.15625 1.93501,-2.11391 2.90622,-5.24604 2.90625,-9.34375 l 0,-25.4375 -4.5,0 0,3.53125 c -0.76428,-1.46345 -1.74921,-2.55076 -2.96875,-3.25 -1.21958,-0.69919 -2.7126,-1.06248 -4.46875,-1.0625 z m 32.4375,0 c -3.9026,2e-5 -7.03346,1.30455 -9.375,3.90625 -2.34156,2.60174 -3.5,6.07963 -3.5,10.4375 0,4.47172 1.20341,7.97831 3.59375,10.53125 2.39033,2.53668 5.69342,3.8125 9.9375,3.8125 1.47971,0 3.01643,-0.17351 4.59375,-0.53125 1.59353,-0.34148 3.23009,-0.86329 4.9375,-1.5625 l 0,-4.46875 c -1.77245,0.92687 -3.43899,1.63845 -5,2.09375 -1.56105,0.45531 -3.03782,0.65625 -4.46875,0.65625 -2.82939,0 -5.03273,-0.81142 -6.59375,-2.4375 -1.54478,-1.62607 -2.31251,-3.89927 -2.3125,-6.875 l 0,-0.15625 19.4375,0 0,-2.1875 c -3e-5,-4.08144 -1.01494,-7.29842 -3.03125,-9.65625 -2.0001,-2.35779 -4.73896,-3.56248 -8.21875,-3.5625 z m -31.4375,3.8125 c 2.09762,2e-5 3.69176,0.86886 4.78125,2.625 1.10571,1.73992 1.65623,4.29028 1.65625,7.65625 -2e-5,3.34973 -0.55054,5.91508 -1.65625,7.6875 -1.08949,1.77243 -2.65365,2.65625 -4.71875,2.65625 -2.21148,0 -3.92298,-0.86883 -5.09375,-2.625 -1.15452,-1.77242 -1.71876,-4.35276 -1.71875,-7.71875 -1e-5,-3.36597 0.56423,-5.91633 1.71875,-7.65625 1.1545,-1.75614 2.83603,-2.62498 5.03125,-2.625 z m 31.25,0 c 2.21145,2e-5 3.8917,0.68035 5.0625,2.0625 1.18701,1.36592 1.80993,3.36577 1.875,6 l -14.78125,0.0313 c 0.26016,-2.53667 1.10156,-4.50653 2.5,-5.9375 1.39842,-1.43093 3.18105,-2.15623 5.34375,-2.15625 z m -60.15625,10.4375 1.5,0 4.1875,0 0,1 c -0.0163,3.02451 -0.74158,5.40136 -2.15625,7.125 -1.41471,1.70738 -3.34088,2.5625 -5.8125,2.5625 -1.75618,0 -3.1331,-0.46439 -4.125,-1.375 -0.99192,-0.9106 -1.50001,-2.17016 -1.5,-3.8125 -1e-5,-1.8212 0.65162,-3.18314 1.96875,-4.09375 1.33337,-0.92685 3.3195,-1.40624 5.9375,-1.40625 z m -42.28125,39.75 0,36.4375 4.75,0 0,-30 12.28125,30 6.25,0 0,-36.4375 -4.75,0 0,30 -12.28125,-30 -6.25,0 z m 67.1875,1.34375 0,7.78125 -7.28125,0 0,3.46875 7.28125,0 0,14.84375 c -1e-5,3.30094 0.68032,5.61911 2.0625,6.96875 1.38215,1.34965 3.759,2.03125 7.125,2.03125 l 5.5,0 0,-3.59375 -5.0625,0 c -1.90253,0 -3.23576,-0.39072 -4,-1.1875 -0.76427,-0.79677 -1.12501,-2.20241 -1.125,-4.21875 l 0,-14.84375 10.1875,0 0,-3.46875 -10.1875,0 0,-7.78125 -4.5,0 z m -25.5,7.09375 c -3.78877,3e-5 -6.68743,1.23215 -8.6875,3.6875 -2.00008,2.4554 -3,6.00569 -3,10.65625 0,4.66685 0.99992,8.23213 3,10.6875 2.00007,2.43912 4.89873,3.65625 8.6875,3.65625 3.805,0 6.6874,-1.21713 8.6875,-3.65625 2.00005,-2.45537 2.99997,-6.02065 3,-10.6875 -3e-5,-4.65056 -1.01494,-8.20085 -3.03125,-10.65625 -2.0001,-2.45535 -4.86751,-3.68747 -8.65625,-3.6875 z m 0,3.8125 c 2.29275,2e-5 4.0167,0.88385 5.1875,2.65625 1.17075,1.77244 1.74998,4.39521 1.75,7.875 -2e-5,3.46356 -0.57925,6.11757 -1.75,7.90625 -1.1708,1.77243 -2.89475,2.65625 -5.1875,2.65625 -2.27652,0 -4.01674,-0.88382 -5.1875,-2.65625 -1.17079,-1.78868 -1.75001,-4.44269 -1.75,-7.90625 -1e-5,-3.47979 0.57921,-6.10256 1.75,-7.875 1.17076,-1.7724 2.91098,-2.65623 5.1875,-2.65625 z m 66,48.65625 0,14.125 c -0.71549,-1.34962 -1.71669,-2.36326 -2.96875,-3.0625 -1.2521,-0.71545 -2.70143,-1.06247 -4.34375,-1.0625 -3.28469,3e-5 -5.87875,1.2446 -7.78125,3.78125 -1.90252,2.52044 -2.84375,5.99833 -2.84375,10.4375 0,4.50425 0.9575,8.0558 2.84375,10.62503 1.9025,2.5529 4.4803,3.8125 7.78125,3.8125 1.62606,0 3.07666,-0.3321 4.3125,-1.0313 1.25206,-0.7155 2.25198,-1.7441 3,-3.0937 l 0,3.4375 4.46875,0 0,-37.96878 -4.46875,0 z m -135.46875,1.5625 0,36.40628 4.96875,0 0,-17.40628 14.9375,0 0,-4.125 -14.9375,0 0,-10.75 16.5,0 0,-4.125 -21.46875,0 z m 39.40625,8.4375 c -3.78877,3e-5 -6.687433,1.2009 -8.6875,3.65625 -2.00008,2.4554 -3.000003,6.03694 -3,10.6875 -3e-6,4.66685 0.99992,8.20088 3,10.65623 2.000067,2.4391 4.89873,3.6563 8.6875,3.6563 3.805,0 6.71865,-1.2172 8.71875,-3.6563 2.00005,-2.45535 2.99997,-5.98938 3,-10.65623 -3e-5,-4.65056 -1.01494,-8.2321 -3.03125,-10.6875 -2.0001,-2.45535 -4.89876,-3.65622 -8.6875,-3.65625 z m 62.40625,0 c -1.87001,3e-5 -3.47786,0.40574 -4.84375,1.21875 -1.36592,0.7968 -2.45323,1.97024 -3.25,3.53125 l 0,-4.09375 -4.46875,0 0,27.31253 4.46875,0 0,-15.43753 c -1e-5,-2.78058 0.5655,-4.9265 1.6875,-6.40625 1.13824,-1.49597 2.7461,-2.24998 4.84375,-2.25 1.83745,2e-5 3.20066,0.59551 4.0625,1.75 0.8618,1.15454 1.28123,2.95089 1.28125,5.40625 l 0,16.93753 4.53125,0 0,-16.93753 c -3e-5,-3.70744 -0.71161,-6.46002 -2.09375,-8.28125 -1.36593,-1.83744 -3.43818,-2.74997 -6.21875,-2.75 z m -42.625,0.6875 0,16.9375 c -1e-5,3.70746 0.69659,6.47508 2.0625,8.31248 1.3659,1.8212 3.42189,2.7188 6.21875,2.7188 1.83745,0 3.44658,-0.4057 4.8125,-1.2188 1.38215,-0.813 2.48445,-1.9852 3.28125,-3.5625 l 0,4.0938 4.5,0 0,-27.28128 -4.5,0 0,15.4375 c -2e-5,2.7806 -0.56553,4.94152 -1.6875,6.4375 -1.12201,1.47968 -2.72987,2.21878 -4.84375,2.21878 -1.82122,0 -3.18443,-0.5955 -4.0625,-1.75003 -0.86183,-1.15451 -1.28126,-2.95086 -1.28125,-5.40625 l 0,-16.9375 -4.5,0 z m -19.78125,3.09375 c 2.29275,2e-5 4.0167,0.88385 5.1875,2.65625 1.17075,1.77244 1.74998,4.42646 1.75,7.90625 -2e-5,3.46356 -0.57925,6.08632 -1.75,7.875 -1.1708,1.77243 -2.89475,2.65623 -5.1875,2.65623 -2.27652,0 -3.98549,-0.8838 -5.15625,-2.65623 -1.17079,-1.78868 -1.781258,-4.41144 -1.78125,-7.875 -8e-6,-3.47979 0.61046,-6.13381 1.78125,-7.90625 1.17076,-1.7724 2.87973,-2.65623 5.15625,-2.65625 z m 89.40625,0 c 2.16267,2e-5 3.81549,0.89884 4.9375,2.6875 1.13823,1.77244 1.71873,4.41147 1.71875,7.875 -2e-5,3.4473 -0.58052,6.05507 -1.71875,7.84375 -1.12201,1.78868 -2.77483,2.68748 -4.9375,2.68748 -2.1627,0 -3.80053,-0.8838 -4.90625,-2.65623 -1.10574,-1.77242 -1.65626,-4.39518 -1.65625,-7.875 -1e-5,-3.47979 0.55051,-6.13381 1.65625,-7.90625 1.10572,-1.7724 2.74355,-2.65623 4.90625,-2.65625 z"
       id="text3966"
       inkscape:connector-curvature="0" />
    <flowRoot
       xml:space="preserve"
       id="flowRoot3978"
       style="fill:black;stroke:none;stroke-opacity:1;stroke-width:1px;stroke-linejoin:miter;stroke-linecap:butt;fill-opacity:1;font-family:Bitstream Vera Sans Mono;font-style:normal;font-weight:normal;font-size:20px;-inkscape-font-specification:Bitstream Vera Sans Mono;font-stretch:normal;font-variant:normal;line-height:125%;letter-spacing:0px;word-spacing:0px"><flowRegion
         id="flowRegion3980"><rect
           id="rect3982"
           width="218.19295"
           height="244.45691"
           x="30.304577"
           y="4.4720163" /></flowRegion><flowPara
         id="flowPara3984"></flowPara></flowRoot>  </g>
</svg>
